<?xml version="1.0" encoding="iso-8859-1"?>
<!-- Generator: Adobe Illustrator 19.2.0, SVG Export Plug-In . SVG Version: 6.00 Build 0)  -->
<svg xmlns="http://www.w3.org/2000/svg" xmlns:xlink="http://www.w3.org/1999/xlink" version="1.1" id="Layer_1" x="0px" y="0px" viewBox="0 0 40 40" style="enable-background:new 0 0 40 40;" xml:space="preserve">
<circle style="fill:#4788C7;" cx="34.5" cy="4.5" r="1.5"/>
<g>
	<polygon style="fill:#4788C7;" points="36,18 36,8 32,8 32,9 33,9 33,18 32,18 32,19 37,19 37,18  "/>
</g>
<g>
	<path style="fill:#B6DCFE;" d="M1.511,38.5c0.263-6.11,5.316-11,11.489-11h8c6.173,0,11.227,4.89,11.489,11H1.511z"/>
	<g>
		<path style="fill:#4788C7;" d="M21,28c5.729,0,10.448,4.401,10.955,10H2.045C2.552,32.401,7.271,28,13,28H21 M21,27h-8    C6.373,27,1,32.373,1,39h32C33,32.373,27.627,27,21,27L21,27z"/>
	</g>
</g>
<g>
	<path style="fill:#FFFFFF;" d="M17,30.5c-3.219,0-4.309-2.102-4.5-2.537V22.5h9v5.464C21.312,28.394,20.222,30.5,17,30.5z"/>
	<g>
		<path style="fill:#4788C7;" d="M21,23v4.854C20.759,28.343,19.738,30,17,30c-2.73,0-3.756-1.657-4-2.147V23H21 M22,22H12v6.062    c0,0,1.066,2.938,5,2.938s5-2.938,5-2.938V22L22,22z"/>
	</g>
</g>
<g>
	<g>
		<path style="fill:#FFFFFF;" d="M17,25.5c-0.604,0-1.171-0.218-1.641-0.631l-0.09-0.079l-0.117-0.029    C11.824,23.916,9.5,20.931,9.5,17.5V8.201c0-1.826,1.486-3.313,3.313-3.313h8.375c1.827,0,3.313,1.486,3.313,3.313V17.5    c0,3.431-2.324,6.416-5.652,7.261l-0.117,0.029l-0.09,0.079C18.171,25.282,17.604,25.5,17,25.5z"/>
	</g>
	<g>
		<path style="fill:#4788C7;" d="M21.187,5.389C22.738,5.389,24,6.651,24,8.202V17.5c0,3.201-2.169,5.987-5.275,6.776l-0.233,0.059    l-0.181,0.159C18.048,24.725,17.608,25,17,25s-1.048-0.275-1.311-0.506l-0.181-0.159l-0.233-0.059    C12.169,23.487,10,20.701,10,17.5V8.202c0-1.551,1.262-2.813,2.813-2.813H21.187 M21.187,4.389h-8.375    C10.707,4.389,9,6.096,9,8.202V17.5c0,3.737,2.566,6.866,6.029,7.745C15.557,25.709,16.242,26,17,26s1.443-0.291,1.971-0.755    C22.434,24.366,25,21.237,25,17.5V8.202C25,6.096,23.293,4.389,21.187,4.389L21.187,4.389z"/>
	</g>
</g>
<g>
	<path style="fill:#B6DCFE;" d="M25,25.5c-1.767,0-3.411-0.911-4.27-1.484c1.045-0.658,2.77-2.223,2.77-5.373v-4.724   c0-2.41-2.086-4.223-2.175-4.299l-0.43-0.368l-0.313,0.473c-0.021,0.032-2.135,3.156-6.651,3.78   c-2.358,0.325-3.432,2.109-3.432,3.629v1.509c0,3.193,1.708,4.734,2.757,5.381C12.398,24.597,10.764,25.5,9,25.5   c-1.786,0-3.378-0.935-4.16-1.484c0.882-0.695,2.445-2.24,2.445-4.444c0-0.928-0.176-1.909-0.362-2.948   C6.715,15.463,6.5,14.263,6.5,13c0-8.488,5.387-11.5,10-11.5c3.802,0,5.031,2.676,5.043,2.702L21.674,4.5H22   c3.495,0,5.5,2.733,5.5,7.5c0,1.342-0.268,2.836-0.528,4.281C26.729,17.634,26.5,18.912,26.5,20c0,1.845,1.459,2.852,2.642,3.281   C28.434,24.092,26.928,25.5,25,25.5z"/>
	<g>
		<path style="fill:#4788C7;" d="M16.5,2c3.427,0,4.543,2.315,4.586,2.405L21.349,5H22c3.224,0,5,2.486,5,7    c0,1.298-0.264,2.769-0.52,4.193C26.233,17.569,26,18.868,26,20c0,1.764,1.141,2.855,2.289,3.45C27.545,24.165,26.38,25,25,25    c-1.274,0-2.497-0.524-3.357-1.01C22.732,23.107,24,21.472,24,18.643v-4.724c0-2.638-2.254-4.596-2.35-4.678l-0.864-0.739    l-0.623,0.951c-0.019,0.03-1.985,2.961-6.3,3.557C11.209,13.376,10,15.404,10,17.133v1.509c0,2.863,1.254,4.489,2.342,5.361    C11.491,24.486,10.282,25,9,25c-1.313,0-2.525-0.556-3.331-1.041c0.942-0.88,2.117-2.379,2.117-4.388    c0-0.972-0.18-1.975-0.37-3.036C7.211,15.396,7,14.218,7,13C7,4.881,12.118,2,16.5,2 M16.5,1C11.212,1,6,4.694,6,13    c0,2.454,0.786,4.682,0.786,6.571C6.786,22.327,4,24,4,24s2.254,2,5,2c2.794,0,5.211-2.056,5.211-2.056S11,22.918,11,18.643    c0-0.613,0-0.56,0-1.509c0-1.354,0.942-2.849,3-3.134c4.816-0.665,7-4,7-4s2,1.711,2,3.919c0,1.044,0,3.009,0,4.724    c0,4.194-3.214,5.302-3.214,5.302S22.225,26,25,26c3.005,0,5-3,5-3s-3-0.535-3-3c0-2.19,1-5.352,1-8c0-5.761-2.766-8-6-8    C22,4,20.672,1,16.5,1L16.5,1z"/>
	</g>
</g>
</svg>
